<?xml version="1.0" encoding="UTF-8"?><svg id="uuid-387475fd-6c63-430c-803a-df9cb9b95e5e" xmlns="http://www.w3.org/2000/svg" viewBox="0 0 819.28 157.14"><defs><style>.uuid-829b27d5-8191-432b-9fbc-85eacd6e4224{fill:#1d2830;}.uuid-829b27d5-8191-432b-9fbc-85eacd6e4224,.uuid-8ff53a1c-bbc7-41b6-933f-2af643d6ce3a{stroke-width:0px;}.uuid-8ff53a1c-bbc7-41b6-933f-2af643d6ce3a{fill:#ef2f0f;}</style></defs><path class="uuid-8ff53a1c-bbc7-41b6-933f-2af643d6ce3a" d="M183.19,80.08c.54-.93.54-2.09,0-3.02l-18.27-31.65c-.54-.94-1.54-1.51-2.62-1.51h-33.06c-2.33,0-3.78,2.52-2.62,4.53l4.77,8.27c1.16,2.01-.29,4.53-2.62,4.53h-49.59c-2.33,0-3.78-2.52-2.62-4.53l24.8-42.94c1.16-2.01-.29-4.53-2.62-4.53h-33.06c-1.08,0-2.08.58-2.62,1.51L24.8,77.06c-.54.93-.54,2.09,0,3.02l18.28,31.65c.54.93,1.54,1.51,2.62,1.51h33.05c2.33,0,3.78-2.52,2.62-4.53l-4.78-8.28c-1.16-2.01.29-4.53,2.62-4.53h49.6c2.33,0,3.78,2.52,2.62,4.53l-24.8,42.95c-1.16,2.01.29,4.53,2.62,4.53h33.06c1.08,0,2.08-.58,2.62-1.51l38.29-66.32Z"/><path class="uuid-829b27d5-8191-432b-9fbc-85eacd6e4224" d="M312.5,35.08v86.97c0,1.51-1.22,2.73-2.73,2.73h-16.74c-1.51,0-2.73-1.22-2.73-2.73v-14.75c0-1.51-1.22-2.73-2.73-2.73h-32.69c-1.51,0-2.73,1.22-2.73,2.73v14.75c0,1.51-1.22,2.73-2.73,2.73h-16.88c-1.51,0-2.73-1.22-2.73-2.73V35.08c0-1.51,1.22-2.73,2.73-2.73h16.88c1.51,0,2.73,1.22,2.73,2.73v44.47c0,1.51,1.22,2.73,2.73,2.73h32.69c1.51,0,2.73-1.22,2.73-2.73v-44.47c0-1.51,1.22-2.73,2.73-2.73h16.74c1.51,0,2.73,1.22,2.73,2.73Z"/><path class="uuid-829b27d5-8191-432b-9fbc-85eacd6e4224" d="M407.04,112.23c-9.11,9.24-20.27,13.86-33.47,13.86s-24.36-4.62-33.47-13.86c-9.11-9.24-13.66-20.46-13.66-33.67s4.56-24.42,13.66-33.66c9.11-9.24,20.27-13.86,33.47-13.86s24.36,4.62,33.47,13.86c9.11,9.24,13.66,20.46,13.66,33.66s-4.56,24.42-13.66,33.67ZM373.57,104.45c7.04,0,12.96-2.49,17.76-7.46,4.8-4.97,7.19-11.11,7.19-18.42s-2.4-13.44-7.19-18.41c-4.8-4.97-10.72-7.46-17.76-7.46s-13.07,2.49-17.82,7.46c-4.75,4.97-7.13,11.11-7.13,18.41s2.38,13.45,7.13,18.42c4.75,4.97,10.69,7.46,17.82,7.46Z"/><path class="uuid-829b27d5-8191-432b-9fbc-85eacd6e4224" d="M434.66,122.05V35.09c0-1.51,1.22-2.73,2.73-2.73h16.86c1.51,0,2.73,1.22,2.73,2.73v66.5c0,1.51,1.22,2.73,2.73,2.73h37.32c1.94,0,3.26,1.96,2.53,3.75l-6.11,15.01c-.42,1.03-1.42,1.7-2.53,1.7h-53.52c-1.51,0-2.73-1.22-2.73-2.73Z"/><path class="uuid-829b27d5-8191-432b-9fbc-85eacd6e4224" d="M552.94,69.7l-20.96,53.35c-.41,1.04-1.42,1.73-2.54,1.73h-18.54c-1.93,0-3.25-1.95-2.53-3.74l34.79-86.96c.41-1.04,1.42-1.71,2.53-1.71h19.68c1.11,0,2.11.68,2.53,1.71l35.03,86.96c.72,1.79-.6,3.75-2.53,3.75h-18.54c-1.12,0-2.12-.68-2.53-1.72l-21.32-53.38c-.92-2.29-4.17-2.28-5.07.01Z"/><path class="uuid-829b27d5-8191-432b-9fbc-85eacd6e4224" d="M613.4,122.05V35.09c0-1.51,1.22-2.73,2.73-2.73h20.87c.93,0,1.79.47,2.29,1.25l30.61,47.58c1.47,2.29,5.02,1.25,5.02-1.48v-44.63c0-1.51,1.22-2.73,2.73-2.73h16.73c1.51,0,2.73,1.22,2.73,2.73v86.96c0,1.51-1.22,2.73-2.73,2.73h-20.86c-.93,0-1.79-.47-2.3-1.26l-30.48-47.55c-1.47-2.29-5.02-1.25-5.02,1.47v44.61c0,1.51-1.22,2.73-2.73,2.73h-16.86c-1.51,0-2.73-1.22-2.73-2.73Z"/><path class="uuid-829b27d5-8191-432b-9fbc-85eacd6e4224" d="M711.06,122.05V35.08c0-1.5,1.21-2.72,2.72-2.73l34.12-.12c13.03,0,24.12,4.11,33.27,12.34,9.15,8.23,13.73,19.52,13.73,33.86s-4.58,25.66-13.73,33.93c-9.15,8.27-20.24,12.41-33.27,12.41h-34.11c-1.51,0-2.73-1.22-2.73-2.73ZM733.37,100.4c0,1.51,1.22,2.73,2.73,2.73h10.87c7.57,0,13.75-2.05,18.55-6.14,4.8-4.09,7.2-10.27,7.2-18.55s-2.4-14.43-7.2-18.48c-4.8-4.05-10.98-6.07-18.55-6.07l-10.9.11c-1.5.01-2.7,1.23-2.7,2.73v43.68Z"/></svg>