<?xml version="1.0" encoding="UTF-8"?><svg id="uuid-41266971-9d7b-4523-9ef9-f0eaf333efcd" xmlns="http://www.w3.org/2000/svg" viewBox="0 0 395.33 395.07"><defs><style>.uuid-33faed9f-1049-47a9-9700-0316ade1b729{fill:#ef2f0f;}.uuid-33faed9f-1049-47a9-9700-0316ade1b729,.uuid-817e08de-3bf0-4fc2-b43f-2b600fec6907{stroke-width:0px;}.uuid-817e08de-3bf0-4fc2-b43f-2b600fec6907{fill:#fff;}</style></defs><path class="uuid-33faed9f-1049-47a9-9700-0316ade1b729" d="M276.9,199.02c.54-.94.54-2.09,0-3.03l-18.3-31.71c-.54-.94-1.54-1.51-2.62-1.51h-33.13c-2.33,0-3.79,2.52-2.62,4.54l4.78,8.28c1.17,2.02-.29,4.54-2.62,4.54h-49.69c-2.33,0-3.79-2.52-2.62-4.54l24.84-43.02c1.17-2.02-.29-4.54-2.62-4.54h-33.13c-1.08,0-2.08.58-2.62,1.51l-38.36,66.45c-.54.94-.54,2.09,0,3.03l18.31,31.71c.54.94,1.54,1.51,2.62,1.51h33.12c2.33,0,3.79-2.52,2.62-4.54l-4.79-8.29c-1.16-2.02.29-4.54,2.62-4.54h49.69c2.33,0,3.79,2.52,2.62,4.54l-24.85,43.03c-1.17,2.02.29,4.54,2.62,4.54h33.13c1.08,0,2.08-.58,2.62-1.51l38.36-66.45Z"/><path class="uuid-817e08de-3bf0-4fc2-b43f-2b600fec6907" d="M185.31,35.12l-.05-3.79,19.9-.29.05,3.79-7.7.11.31,21.16-4.48.06-.31-21.16-7.71.12Z"/><path class="uuid-817e08de-3bf0-4fc2-b43f-2b600fec6907" d="M207.78,56.21l3.34-24.72,9.27,1.25c1.9.26,3.45.8,4.65,1.64,1.2.84,2.06,1.89,2.56,3.16.5,1.28.65,2.7.43,4.28-.21,1.58-.73,2.92-1.56,3.99-.83,1.07-1.94,1.83-3.33,2.29-1.39.45-3.03.56-4.93.3l-6.6-.89.5-3.72,6,.81c1.11.15,2.04.12,2.79-.09.75-.21,1.34-.6,1.76-1.15.43-.55.7-1.27.81-2.14s.04-1.65-.21-2.32c-.26-.67-.73-1.22-1.39-1.64-.67-.42-1.55-.71-2.67-.86l-4.1-.56-2.83,20.98-4.48-.6ZM222.07,46.73l4.6,12.03-5-.67-4.5-12.01,4.89.66Z"/><path class="uuid-817e08de-3bf0-4fc2-b43f-2b600fec6907" d="M232.28,60.28l-4.61-1.41,15.69-21.29,5.33,1.63,1.12,26.42-4.61-1.41-.57-20.91-.19-.06-12.15,17.02ZM235.29,50.98l12.58,3.84-1.06,3.47-12.59-3.84,1.06-3.47Z"/><path class="uuid-817e08de-3bf0-4fc2-b43f-2b600fec6907" d="M280.92,53.24l-11.13,22.32-3.59-1.79-2.94-20.45-.19-.09-7.58,15.21-4.04-2.02,11.13-22.32,3.62,1.81,2.92,20.45.19.1,7.59-15.22,4.02,2.01Z"/><path class="uuid-817e08de-3bf0-4fc2-b43f-2b600fec6907" d="M294.35,70.69c.53-.93.62-1.88.28-2.85-.34-.97-1.05-1.84-2.14-2.62-.77-.55-1.51-.9-2.22-1.06-.71-.16-1.36-.15-1.93.04-.57.19-1.05.53-1.42,1.04-.3.42-.46.86-.49,1.31-.03.45.05.9.24,1.36.18.46.43.9.73,1.34.3.44.63.85.97,1.25l1.56,1.83c.64.72,1.21,1.49,1.7,2.31.49.81.86,1.65,1.09,2.52s.28,1.75.14,2.64c-.14.89-.51,1.77-1.14,2.65-.85,1.19-1.9,2.02-3.15,2.48s-2.63.55-4.14.23c-1.51-.32-3.07-1.05-4.7-2.21-1.58-1.13-2.77-2.35-3.58-3.67-.81-1.32-1.21-2.68-1.18-4.08.02-1.41.48-2.8,1.4-4.18l3.61,2.58c-.46.74-.65,1.49-.61,2.23.05.74.3,1.45.75,2.13.45.67,1.06,1.28,1.83,1.83.8.57,1.59.95,2.36,1.14.78.19,1.49.2,2.15.01.65-.19,1.19-.57,1.62-1.15.36-.53.53-1.08.47-1.65-.05-.56-.27-1.16-.64-1.78-.38-.63-.86-1.29-1.46-2l-1.89-2.24c-1.36-1.62-2.21-3.22-2.56-4.78-.34-1.57,0-3.08,1.05-4.53.85-1.2,1.93-2.01,3.22-2.44,1.29-.43,2.68-.5,4.16-.2,1.48.31,2.93.97,4.35,1.98,1.44,1.03,2.53,2.18,3.25,3.46.73,1.27,1.09,2.58,1.08,3.9,0,1.33-.41,2.57-1.21,3.72l-3.54-2.53Z"/><path class="uuid-817e08de-3bf0-4fc2-b43f-2b600fec6907" d="M289.84,90.14l17.23-18.03,11.55,11.04-2.62,2.74-8.29-7.91-4.68,4.89,7.49,7.16-2.62,2.74-7.49-7.16-7.32,7.66-3.27-3.12Z"/><path class="uuid-817e08de-3bf0-4fc2-b43f-2b600fec6907" d="M326.44,112.66c-2.13,1.64-4.25,2.65-6.38,3.02-2.13.37-4.12.19-5.98-.56s-3.45-1.99-4.79-3.72c-1.34-1.73-2.12-3.59-2.37-5.57-.25-1.99.08-3.96.98-5.92s2.41-3.76,4.53-5.4c2.13-1.64,4.26-2.65,6.38-3.02,2.13-.37,4.12-.19,5.98.56,1.86.75,3.45,1.98,4.79,3.71,1.33,1.73,2.12,3.59,2.38,5.57.25,1.98-.07,3.96-.98,5.92-.9,1.96-2.42,3.76-4.55,5.4ZM323.67,109.07c1.5-1.16,2.58-2.36,3.26-3.63.67-1.26.96-2.5.85-3.74-.1-1.23-.57-2.38-1.4-3.46-.83-1.07-1.82-1.82-2.99-2.23-1.17-.42-2.45-.46-3.84-.13-1.39.33-2.84,1.07-4.33,2.23-1.5,1.16-2.58,2.36-3.25,3.63-.68,1.27-.96,2.51-.85,3.74.1,1.24.57,2.39,1.4,3.46.83,1.07,1.83,1.82,2.99,2.23,1.16.41,2.44.45,3.84.12,1.39-.33,2.84-1.07,4.33-2.22Z"/><path class="uuid-817e08de-3bf0-4fc2-b43f-2b600fec6907" d="M317.95,122.84l21.98-11.8,4.43,8.24c.91,1.69,1.37,3.27,1.4,4.72.03,1.47-.33,2.78-1.06,3.93-.74,1.16-1.81,2.11-3.21,2.87-1.41.75-2.8,1.11-4.15,1.07-1.35-.04-2.62-.49-3.8-1.35-1.18-.86-2.23-2.13-3.14-3.82l-3.15-5.87,3.31-1.77,2.87,5.33c.53.99,1.1,1.72,1.71,2.2.61.48,1.27.73,1.97.75.69.02,1.43-.18,2.21-.6.78-.42,1.36-.93,1.76-1.54.39-.6.56-1.3.51-2.08-.05-.79-.34-1.68-.87-2.67l-1.96-3.65-18.65,10.01-2.14-3.98ZM334.01,128.85l-7.04,10.78-2.39-4.44,7.09-10.69,2.34,4.35Z"/><path class="uuid-817e08de-3bf0-4fc2-b43f-2b600fec6907" d="M351.66,133.59l1.7,5.26-14.9,12.63.09.27,19.48,1.47,1.71,5.26-23.73,7.7-1.34-4.13,16.3-5.29-.07-.22-18.35-1.29-1.01-3.08,14.14-11.84-.07-.22-16.34,5.3-1.34-4.12,23.73-7.7Z"/><path class="uuid-817e08de-3bf0-4fc2-b43f-2b600fec6907" d="M336.86,172.48l-.63-4.78,25.88,5.44.74,5.53-23.58,11.99-.63-4.78,18.78-9.2-.03-.2-20.53-3.99ZM346.57,171.35l1.72,13.04-3.6.48-1.73-13.04,3.6-.48Z"/><path class="uuid-817e08de-3bf0-4fc2-b43f-2b600fec6907" d="M363.41,213.86l-24.93-.9.15-4.02,17.41-11.13v-.21s-16.97-.62-16.97-.62l.17-4.52,24.93.91-.15,4.04-17.42,11.11v.22s16.99.62,16.99.62l-.17,4.49Z"/><path class="uuid-817e08de-3bf0-4fc2-b43f-2b600fec6907" d="M336.29,224.81l1.73-8.28,24.41,5.1-1.76,8.45c-.51,2.42-1.43,4.41-2.77,5.94-1.34,1.54-3.02,2.59-5.03,3.15-2.02.56-4.29.58-6.83.05-2.55-.53-4.64-1.46-6.26-2.78-1.63-1.32-2.75-2.97-3.36-4.94-.61-1.97-.65-4.2-.14-6.68ZM340.93,221.76l-.77,3.64c-.35,1.7-.34,3.19.05,4.45.38,1.27,1.14,2.32,2.27,3.15,1.12.83,2.62,1.44,4.48,1.83,1.87.39,3.48.43,4.84.12,1.35-.31,2.46-.97,3.31-1.95.85-.99,1.44-2.31,1.79-3.96l.79-3.77-16.76-3.5Z"/><path class="uuid-817e08de-3bf0-4fc2-b43f-2b600fec6907" d="M336.52,264.46c-2.5-.98-4.46-2.3-5.87-3.93-1.41-1.63-2.28-3.44-2.59-5.42-.31-1.98-.07-3.98.74-6.01.8-2.03,1.99-3.67,3.56-4.9,1.58-1.23,3.45-1.96,5.59-2.2,2.15-.23,4.46.14,6.96,1.12,2.5.99,4.45,2.3,5.87,3.93,1.41,1.63,2.27,3.44,2.58,5.41.31,1.98.07,3.98-.73,6.02-.8,2.03-1.99,3.67-3.57,4.9-1.57,1.24-3.43,1.97-5.58,2.2-2.15.23-4.47-.15-6.97-1.13ZM338.19,260.23c1.76.7,3.36,1.01,4.78.94,1.43-.07,2.64-.47,3.65-1.19,1.01-.72,1.76-1.71,2.25-2.97.5-1.26.62-2.5.39-3.71-.25-1.22-.87-2.33-1.86-3.36-.99-1.02-2.37-1.89-4.14-2.58-1.76-.7-3.35-1.01-4.78-.94-1.42.07-2.64.47-3.65,1.19-1,.72-1.75,1.71-2.25,2.97-.5,1.26-.63,2.5-.38,3.71.24,1.21.86,2.33,1.86,3.36.99,1.03,2.37,1.89,4.13,2.58Z"/><path class="uuid-817e08de-3bf0-4fc2-b43f-2b600fec6907" d="M308.07,310.84l3.02-3.4c.64.4,1.3.66,1.96.79.67.13,1.32.13,1.97.01.65-.11,1.27-.36,1.87-.71s1.14-.82,1.65-1.39c.9-1.01,1.45-2.14,1.64-3.37.19-1.24,0-2.5-.59-3.81-.58-1.31-1.57-2.59-2.97-3.84-1.42-1.27-2.82-2.11-4.19-2.54-1.37-.42-2.65-.46-3.84-.12-1.19.34-2.23,1.01-3.13,2.02-.5.55-.89,1.14-1.17,1.77-.29.62-.46,1.25-.51,1.9-.06.65,0,1.3.19,1.95.18.65.5,1.27.96,1.86l-3.05,3.39c-.77-.92-1.36-1.93-1.76-3.04-.41-1.11-.59-2.27-.58-3.48.01-1.21.26-2.41.74-3.62s1.21-2.36,2.2-3.47c1.46-1.64,3.14-2.76,5.04-3.37,1.9-.61,3.9-.65,5.99-.11,2.08.53,4.13,1.69,6.13,3.47,2.01,1.79,3.39,3.69,4.16,5.71.76,2.02.95,4.01.56,5.97-.38,1.96-1.3,3.75-2.74,5.38-.93,1.04-1.93,1.87-3.01,2.5-1.09.63-2.22,1.05-3.4,1.25-1.18.19-2.38.16-3.59-.1-1.22-.27-2.4-.8-3.56-1.58Z"/><path class="uuid-817e08de-3bf0-4fc2-b43f-2b600fec6907" d="M284.34,325.08c-1.67-2.1-2.71-4.21-3.12-6.34-.41-2.12-.25-4.12.47-5.98.72-1.87,1.93-3.49,3.64-4.84,1.71-1.36,3.56-2.18,5.54-2.45,1.98-.28,3.96.02,5.94.89,1.97.87,3.79,2.35,5.47,4.45,1.67,2.1,2.71,4.22,3.12,6.33.4,2.13.25,4.11-.47,5.98-.72,1.87-1.93,3.48-3.64,4.84-1.71,1.36-3.55,2.18-5.53,2.46-1.99.28-3.96-.02-5.94-.89-1.98-.87-3.8-2.36-5.47-4.46ZM287.9,322.26c1.18,1.48,2.4,2.55,3.67,3.2,1.27.65,2.52.91,3.75.79s2.38-.6,3.44-1.45c1.06-.85,1.79-1.85,2.19-3.02.39-1.17.42-2.45.07-3.84-.35-1.39-1.11-2.82-2.3-4.3-1.17-1.48-2.4-2.55-3.68-3.2-1.27-.66-2.52-.92-3.75-.8-1.23.12-2.38.61-3.44,1.46-1.06.84-1.79,1.85-2.18,3.02-.4,1.17-.42,2.45-.07,3.84.35,1.38,1.11,2.82,2.3,4.3Z"/><path class="uuid-817e08de-3bf0-4fc2-b43f-2b600fec6907" d="M286.01,338.99l-4.91,2.55-14.91-12.62-.26.14,1.76,19.45-4.91,2.55-11.5-22.13,3.84-2,7.91,15.2.2-.1-1.75-18.32,2.88-1.5,14,11.99.2-.1-7.92-15.24,3.85-2,11.51,22.13Z"/><path class="uuid-817e08de-3bf0-4fc2-b43f-2b600fec6907" d="M247.77,329.93l7.41,23.82-8.94,2.78c-1.83.57-3.47.71-4.93.41-1.46-.29-2.69-.94-3.7-1.93-1.01-.99-1.75-2.24-2.22-3.76-.48-1.52-.57-2.98-.3-4.37s.94-2.61,1.99-3.68c1.04-1.07,2.48-1.89,4.32-2.46l5.92-1.84,1.1,3.55-5.34,1.66c-1.07.33-1.89.79-2.45,1.38-.57.58-.92,1.25-1.04,2-.13.76-.06,1.55.2,2.4.26.84.66,1.54,1.19,2.08.53.54,1.2.89,1.99,1.04.8.15,1.74.05,2.81-.28l3.96-1.23-6.28-20.22,4.31-1.34Z"/><path class="uuid-817e08de-3bf0-4fc2-b43f-2b600fec6907" d="M227.99,335.75l4.14,24.59-4.46.76-3.51-20.86-10.83,1.82-.63-3.74,15.29-2.57Z"/><path class="uuid-817e08de-3bf0-4fc2-b43f-2b600fec6907" d="M210.22,338.55l.85,24.93-16.22.56-.12-3.79,11.69-.4-.24-6.76-10.86.37-.12-3.78,10.86-.37-.23-6.8-11.8.4-.13-3.78,16.32-.56Z"/><path class="uuid-817e08de-3bf0-4fc2-b43f-2b600fec6907" d="M184.07,363.4l-4.41-9.7-.19-.02-6.53,8.44-5.12-.59,9.06-11.51-6.33-13.28,5.21.6,4.47,9.65.19.02,6.56-8.37,5.18.6-9.26,11.49,6.3,13.28-5.14-.59Z"/><path class="uuid-817e08de-3bf0-4fc2-b43f-2b600fec6907" d="M158.14,359.12l5.6-24.31,4.41,1.02-5.6,24.3-4.4-1.01Z"/><path class="uuid-817e08de-3bf0-4fc2-b43f-2b600fec6907" d="M151.53,331.19l7.96,2.84-8.39,23.49-8.12-2.9c-2.33-.83-4.17-2.02-5.51-3.55-1.35-1.54-2.16-3.34-2.43-5.41s.02-4.33.89-6.77c.87-2.44,2.08-4.39,3.61-5.82s3.32-2.32,5.36-2.65c2.04-.33,4.25-.07,6.64.78ZM153.92,336.19l-3.5-1.25c-1.64-.58-3.11-.77-4.42-.56-1.3.21-2.45.81-3.42,1.81-.98,1-1.79,2.4-2.43,4.19-.64,1.8-.9,3.39-.78,4.78.12,1.38.62,2.56,1.49,3.54.86.98,2.09,1.75,3.68,2.32l3.62,1.29,5.76-16.12Z"/><path class="uuid-817e08de-3bf0-4fc2-b43f-2b600fec6907" d="M135.81,324.85l4.23,2.3-19.65,17.7-4.9-2.67,4.22-26.11,4.23,2.31-3.65,20.6.18.09,15.33-14.22ZM130.99,333.36l-11.55-6.3,1.74-3.19,11.55,6.29-1.74,3.19Z"/><path class="uuid-817e08de-3bf0-4fc2-b43f-2b600fec6907" d="M111.59,309.75l6.66,5.21-15.36,19.66-6.8-5.31c-1.95-1.53-3.32-3.23-4.11-5.11-.79-1.88-.99-3.85-.6-5.9.39-2.05,1.38-4.1,2.98-6.15,1.6-2.05,3.35-3.51,5.26-4.39,1.9-.88,3.88-1.15,5.92-.83,2.04.33,4.06,1.27,6.05,2.83ZM112.28,315.25l-2.93-2.29c-1.37-1.07-2.71-1.71-4.02-1.93-1.3-.21-2.58,0-3.82.64-1.25.64-2.45,1.71-3.63,3.22-1.17,1.51-1.92,2.93-2.24,4.29-.32,1.35-.22,2.63.29,3.83.51,1.2,1.43,2.32,2.76,3.35l3.03,2.37,10.54-13.49Z"/><path class="uuid-817e08de-3bf0-4fc2-b43f-2b600fec6907" d="M99.96,300.13l-18.16,17.1-11.12-11.82,2.76-2.6,8.02,8.52,4.93-4.64-7.45-7.91,2.76-2.6,7.44,7.91,4.96-4.67-8.09-8.6,2.76-2.59,11.18,11.88Z"/><path class="uuid-817e08de-3bf0-4fc2-b43f-2b600fec6907" d="M72.64,264.24l-22.65,10.47-6.81-14.73,3.44-1.59,4.91,10.62,6.15-2.84-4.56-9.86,3.43-1.59,4.56,9.87,6.18-2.86-4.95-10.71,3.44-1.59,6.85,14.81Z"/><path class="uuid-817e08de-3bf0-4fc2-b43f-2b600fec6907" d="M40.22,253.21l-1.4-5.35,15.61-11.74-.07-.28-19.36-2.59-1.4-5.35,24.13-6.31,1.1,4.19-16.58,4.34.06.22,18.25,2.35.82,3.13-14.8,10.99.06.23,16.62-4.35,1.1,4.19-24.13,6.31Z"/><path class="uuid-817e08de-3bf0-4fc2-b43f-2b600fec6907" d="M56.01,192.57l-24.84-2.28,1.48-16.15,3.77.34-1.07,11.66,6.75.62.99-10.82,3.77.34-.99,10.82,6.78.62,1.08-11.75,3.77.34-1.49,16.26Z"/><path class="uuid-817e08de-3bf0-4fc2-b43f-2b600fec6907" d="M58.09,172.98l-24.29-5.65,3.62-15.56,3.69.86-2.6,11.16,6.59,1.54,2.35-10.09,3.69.86-2.35,10.09,10.32,2.41-1.02,4.4Z"/><path class="uuid-817e08de-3bf0-4fc2-b43f-2b600fec6907" d="M40.62,142.37l23.63,7.97-1.44,4.28-23.64-7.96,1.44-4.28Z"/><path class="uuid-817e08de-3bf0-4fc2-b43f-2b600fec6907" d="M59.57,119.95l-1.95,4.12c-.73-.2-1.43-.27-2.11-.2-.68.06-1.31.25-1.89.54s-1.12.7-1.59,1.21c-.47.51-.87,1.11-1.19,1.8-.58,1.23-.79,2.45-.63,3.69.17,1.23.71,2.4,1.63,3.49.93,1.1,2.23,2.05,3.93,2.85,1.72.82,3.3,1.23,4.73,1.26,1.43.02,2.67-.31,3.72-.97,1.04-.66,1.85-1.6,2.43-2.81.32-.68.53-1.35.63-2.03.1-.67.09-1.33-.04-1.97-.12-.64-.37-1.25-.73-1.82-.35-.57-.84-1.07-1.44-1.51l1.97-4.11c1.01.67,1.85,1.48,2.55,2.43.7.96,1.21,2.02,1.54,3.18.32,1.16.43,2.39.3,3.67-.12,1.29-.5,2.61-1.13,3.95-.94,1.98-2.23,3.53-3.9,4.66-1.65,1.12-3.55,1.71-5.71,1.79-2.16.07-4.45-.47-6.87-1.61-2.42-1.15-4.29-2.59-5.59-4.31-1.3-1.72-2.04-3.58-2.22-5.57-.18-2,.2-3.97,1.13-5.94.59-1.26,1.32-2.34,2.19-3.25s1.84-1.63,2.92-2.15c1.07-.52,2.23-.82,3.47-.91,1.24-.08,2.53.09,3.86.51Z"/><path class="uuid-817e08de-3bf0-4fc2-b43f-2b600fec6907" d="M57.77,107.38l21.14,13.22-2.39,3.83-21.15-13.23,2.4-3.83Z"/><path class="uuid-817e08de-3bf0-4fc2-b43f-2b600fec6907" d="M66.36,91.64l-3.98.03.94,3.87-2.38,3.05-.13-.11-1.31-6.88,2.12-2.72,6.98-.39.14.11-2.38,3.04ZM81.27,116.72l-19.66-15.35,9.98-12.79,2.99,2.33-7.2,9.23,5.34,4.17,6.68-8.56,2.98,2.33-6.68,8.56,5.37,4.19,7.26-9.3,2.99,2.33-10.04,12.87Z"/><path class="uuid-817e08de-3bf0-4fc2-b43f-2b600fec6907" d="M91.19,69.2l17.08,18.18-2.92,2.75-20.2-4.33-.15.14,11.63,12.38-3.29,3.09-17.08-18.17,2.94-2.77,20.2,4.35.16-.15-11.65-12.39,3.27-3.08Z"/><path class="uuid-817e08de-3bf0-4fc2-b43f-2b600fec6907" d="M119.61,59.71l-3.8,2.51c-.52-.55-1.08-.97-1.69-1.26-.61-.29-1.25-.47-1.9-.51-.65-.05-1.32.01-1.99.21s-1.32.5-1.95.92c-1.13.75-1.95,1.69-2.44,2.84-.5,1.14-.64,2.42-.42,3.84.22,1.41.85,2.9,1.89,4.46,1.06,1.59,2.19,2.77,3.41,3.52,1.22.76,2.44,1.13,3.68,1.1,1.24-.02,2.41-.41,3.54-1.15.62-.41,1.15-.88,1.59-1.41.43-.53.77-1.1.99-1.71.22-.61.33-1.26.31-1.93-.01-.67-.16-1.35-.45-2.04l3.81-2.49c.51,1.08.82,2.21.92,3.39.1,1.17,0,2.35-.32,3.51-.32,1.16-.87,2.26-1.65,3.3-.77,1.04-1.77,1.97-3.01,2.8-1.83,1.21-3.74,1.86-5.74,1.97-2,.11-3.93-.37-5.82-1.42-1.88-1.05-3.56-2.7-5.04-4.93-1.48-2.24-2.33-4.43-2.56-6.58-.22-2.15.1-4.12.98-5.91.88-1.8,2.22-3.29,4.03-4.5,1.16-.76,2.35-1.31,3.55-1.65,1.21-.33,2.41-.44,3.61-.33,1.19.11,2.34.45,3.44,1.02,1.1.57,2.12,1.39,3.04,2.44Z"/><path class="uuid-817e08de-3bf0-4fc2-b43f-2b600fec6907" d="M124.69,47.96l11.2,22.29-4.03,2.03-11.21-22.28,4.04-2.03Z"/><path class="uuid-817e08de-3bf0-4fc2-b43f-2b600fec6907" d="M142.32,67.18l-4.53,1.66-.35-26.44,5.24-1.92,16.86,20.38-4.53,1.66-13.09-16.32-.19.07.59,20.91ZM139.11,57.95l12.35-4.53,1.25,3.4-12.35,4.54-1.25-3.41Z"/></svg>